#!OML:ASF F:\VICON\USERDATA\INSTALL\rory3\rory3.ASF
:FULLY-SPECIFIED
:DEGREES
4039
root 0.430019 18.3539 1.01685 -901.374 -35.3349 -537.469
lowerback 6.06532 6.01412 4.47205
upperback 2.07752 8.18276 1.51636
thorax -0.824764 4.0498 -1.42813
lowerneck -4.24418 0.915513 -1.00506
upperneck 21.9569 -3.5855 16.2348
head 7.73265 -0.996404 5.24652
rclavicle 5.59082e-014 -1.66979e-014
rhumerus 251.654 -157.547 -274.488
rradius 106.365
rwrist -92.6525
rhand 13.2149 362.582
rfingers 7.12502
rthumb 38.1688 -23.1711
lclavicle 5.59082e-014 -1.66979e-014
lhumerus 20.0538 47.2031 40.2654
lradius 137.243
lwrist 95.5933
lhand -10.4478 18.01
lfingers 7.12502
lthumb 15.5524 47.4046
rfemur 4.62119 10.2449 24.1236
rtibia 23.7852
rfoot -27.517 -27.7817
rtoes -5.16328
lfemur -18.4301 -13.585 -3.72848
ltibia 25.6747
lfoot -6.09503 12.9969
ltoes -11.586
4040
root 0.46555 18.3542 1.0117 -901.328 -35.4002 -537.463
lowerback 5.97435 5.89153 4.4331
upperback 2.02341 8.01702 1.56882
thorax -0.852536 3.96615 -1.34002
lowerneck -4.30859 1.2172 -1.03343
upperneck 21.2958 -2.92509 16.0814
head 7.45555 -0.692047 5.22629
rclavicle -3.34455e-014 7.15625e-015
rhumerus 251.996 -157.068 -275.766
rradius 105.848
rwrist -93.104
rhand 15.525 362.705
rfingers 7.12502
rthumb 40.3456 -22.416
lclavicle -3.34455e-014 7.15625e-015
lhumerus 19.1618 47.5832 39.8335
lradius 138.499
lwrist 94.8125
lhand -10.416 17.6904
lfingers 7.12502
lthumb 15.5831 47.0826
rfemur 4.80324 10.4819 24.2874
rtibia 23.3014
rfoot -27.7425 -27.9481
rtoes -4.71138
lfemur -18.4063 -13.605 -3.57896
ltibia 25.3534
lfoot -5.88664 13.0309
ltoes -11.6517
4041
root 0.504262 18.3508 1.00469 -901.26 -35.453 -537.656
lowerback 5.94509 5.78899 4.17403
upperback 1.9198 7.87524 1.50827
thorax -0.977858 3.89447 -1.26016
lowerneck -4.16399 1.5047 -0.583512
upperneck 20.7065 -2.35802 15.7864
head 7.17906 -0.422507 5.06545
rclavicle -6.20705e-014 -7.95139e-016
rhumerus 252.021 -156.436 -276.798
rradius 105.192
rwrist -93.5258
rhand 16.9799 362.776
rfingers 7.12502
rthumb 41.712 -21.9094
lclavicle -6.20705e-014 -7.95139e-016
lhumerus 18.1804 47.6604 39.1889
lradius 139.54
lwrist 94.1454
lhand -10.5808 17.5682
lfingers 7.12502
lthumb 15.4243 46.9727
rfemur 5.06567 10.7033 24.3094
rtibia 22.8768
rfoot -27.923 -28.1076
rtoes -3.97262
lfemur -18.2832 -13.6233 -3.62025
ltibia 25.0534
lfoot -5.72528 13.0539
ltoes -12.1955
4042
root 0.539645 18.347 1.00259 -901.336 -35.4656 -537.562
lowerback 5.92765 5.8336 4.33651
upperback 1.84723 7.94758 1.49701
thorax -1.01573 3.92992 -1.36493
lowerneck -4.2843 1.6473 -0.34921
upperneck 20.2118 -2.02243 15.6245
head 7.0094 -0.252703 4.97834
rclavicle -2.85753e-014 5.56597e-015
rhumerus 251.923 -155.408 -277.186
rradius 104.579
rwrist -93.7589
rhand 16.7365 362.766
rfingers 7.12502
rthumb 41.4836 -21.9944
lclavicle -2.85753e-014 5.56597e-015
lhumerus 17.6578 47.3262 39.1921
lradius 140.313
lwrist 93.5228
lhand -10.3035 17.7472
lfingers 7.12502
lthumb 15.6913 47.131
rfemur 5.26533 10.9725 24.5608
rtibia 22.5299
rfoot -28.0866 -28.1521
rtoes -3.28363
lfemur -18.1716 -13.532 -3.41779
ltibia 24.7382
lfoot -5.514 13.039
ltoes -13.0291
4043
root 0.568498 18.3483 1.00264 -901.403 -35.441 -537.465
lowerback 5.945 6.01582 4.77733
upperback 1.86111 8.2121 1.47115
thorax -0.930623 4.06344 -1.63909
lowerneck -4.88831 1.63179 -0.911989
upperneck 19.8365 -1.96689 16.0617
head 6.99298 -0.203582 5.22469
rclavicle -9.59633e-014 -1.59028e-015
rhumerus 251.763 -154.03 -276.985
rradius 103.955
rwrist -94.0128
rhand 15.6879 362.805
rfingers 7.12502
rthumb 40.4988 -22.2691
lclavicle -9.59633e-014 -1.59028e-015
lhumerus 17.4362 46.6162 39.7135
lradius 140.861
lwrist 92.8384
lhand -9.78463 17.8151
lfingers 7.12502
lthumb 16.191 47.1589
rfemur 5.39673 11.0651 24.7187
rtibia 22.2581
rfoot -28.2121 -28.0533
rtoes -2.84956
lfemur -18.0397 -13.5072 -3.23449
ltibia 24.4258
lfoot -5.32 13.107
ltoes -13.3917
4044
root 0.598682 18.3517 1.00234 -901.328 -35.3882 -537.663
lowerback 6.01767 6.15262 4.90301
upperback 1.82996 8.40784 1.38369
thorax -0.959723 4.16143 -1.81377
lowerneck -5.19563 1.66874 -1.27863
upperneck 19.3947 -1.83375 16.4144
head 6.89374 -0.129555 5.40774
rclavicle 7.20594e-015 -1.11319e-014
rhumerus 251.248 -152.807 -276.522
rradius 103.166
rwrist -94.3447
rhand 15.0623 363.025
rfingers 7.12502
rthumb 39.9103 -22.2277
lclavicle 7.20594e-015 -1.11319e-014
lhumerus 16.7386 45.746 39.7789
lradius 141.196
lwrist 92.2086
lhand -9.45489 17.7621
lfingers 7.12502
lthumb 16.5085 47.0797
rfemur 5.51707 11.1918 24.6282
rtibia 22.0319
rfoot -28.2783 -27.9644
rtoes -1.96436
lfemur -17.8655 -13.5403 -3.3265
ltibia 24.1348
lfoot -5.11907 13.2237
ltoes -13.3948
4045
root 0.630359 18.3529 1.00366 -901.3 -35.2971 -537.722
lowerback 5.92255 6.09312 4.92759
upperback 1.76556 8.33025 1.33199
thorax -0.967576 4.12366 -1.8689
lowerneck -5.24043 1.94019 -0.821573
upperneck 19.1027 -1.39108 16.1647
head 6.7674 0.0961237 5.26388
rclavicle -8.77137e-014 -3.18055e-015
rhumerus 250.357 -152.216 -276.035
rradius 102.236
rwrist -94.6991
rhand 14.4132 363.105
rfingers 7.12502
rthumb 39.299 -22.3285
lclavicle -8.77137e-014 -3.18055e-015
lhumerus 15.2302 44.9788 38.8471
lradius 141.298
lwrist 91.5003
lhand -9.37234 17.5004
lfingers 7.12502
lthumb 16.588 46.8115
rfemur 5.55876 11.3479 24.6696
rtibia 21.8573
rfoot -28.2101 -27.9566
rtoes -0.851472
lfemur -17.7404 -13.4078 -3.28963
ltibia 23.8532
lfoot -4.86296 13.2462
ltoes -13.3655
4046
root 0.656991 18.3537 1.00768 -901.267 -35.1343 -537.826
lowerback 5.77715 5.9712 4.88373
upperback 1.69453 8.16383 1.28378
thorax -0.970743 4.04191 -1.87501
lowerneck -5.20291 2.28556 -0.202828
upperneck 18.8732 -0.834399 15.7014
head 6.64089 0.370971 5.02946
rclavicle -3.18055e-014 7.15625e-015
rhumerus 249.09 -151.918 -275.328
rradius 101.261
rwrist -95.0074
rhand 12.7047 362.933
rfingers 7.12502
rthumb 37.6869 -22.9504
lclavicle -3.18055e-014 7.15625e-015
lhumerus 13.2481 44.1916 37.4344
lradius 141.216
lwrist 90.972
lhand -9.57889 17.1978
lfingers 7.12502
lthumb 16.3891 46.5254
rfemur 5.59216 11.4151 24.6093
rtibia 21.7407
rfoot -28.032 -27.8433
rtoes -0.469617
lfemur -17.5608 -13.3085 -3.32103
ltibia 23.5852
lfoot -4.65471 13.3674
ltoes -13.301
4047
root 0.682438 18.3575 1.0126 -901.299 -34.9456 -537.782
lowerback 5.74612 6.04201 5.1222
upperback 1.64334 8.27192 1.27891
thorax -0.964715 4.09552 -2.01128
lowerneck -5.41278 2.41503 -0.00104939
upperneck 18.5522 -0.550051 15.4569
head 6.55404 0.514853 4.9252
rclavicle 9.56154e-014 2.22639e-014
rhumerus 247.817 -151.27 -274.01
rradius 100.17
rwrist -95.2209
rhand 10.1122 362.693
rfingers 7.12502
rthumb 35.2328 -23.8087
lclavicle 9.56154e-014 2.22639e-014
lhumerus 11.9187 43.0669 36.9094
lradius 140.854
lwrist 90.5334
lhand -9.58583 17.2656
lfingers 7.12502
lthumb 16.3825 46.5937
rfemur 5.57166 11.4008 24.6416
rtibia 21.6304
rfoot -27.8492 -27.6453
rtoes -0.601294
lfemur -17.4174 -13.3954 -3.19147
ltibia 23.3744
lfoot -4.5672 13.6736
ltoes -13.256
4048
root 0.70783 18.3633 1.01612 -901.307 -34.7402 -537.684
lowerback 5.69309 6.19293 5.47687
upperback 1.66017 8.48482 1.33404
thorax -0.859533 4.20309 -2.14427
lowerneck -5.98691 2.46994 -0.279587
upperneck 18.3526 -0.389732 15.5029
head 6.57696 0.610421 5.00368
rclavicle -4.67144e-014 3.65764e-014
rhumerus 246.534 -150.584 -272.197
rradius 98.931
rwrist -95.4236
rhand 7.71478 362.567
rfingers 7.12502
rthumb 32.9558 -24.4421
lclavicle -4.67144e-014 3.65764e-014
lhumerus 10.8878 41.8377 36.8907
lradius 140.229
lwrist 90.3379
lhand -9.52158 17.5749
lfingers 7.12502
lthumb 16.4443 46.8979
rfemur 5.48045 11.3719 24.7164
rtibia 21.5342
rfoot -27.6086 -27.4554
rtoes -0.810773
lfemur -17.3502 -13.465 -3.00625
ltibia 23.1917
lfoot -4.44048 14.0206
ltoes -13.7697
4049
root 0.727629 18.3704 1.01551 -901.267 -34.5365 -537.773
lowerback 5.51925 6.20548 5.60511
upperback 1.73391 8.4905 1.37465
thorax -0.673826 4.21121 -2.14432
lowerneck -6.53375 2.66835 -0.422499
upperneck 18.2857 -0.0247749 15.3343
head 6.6207 0.801785 5.00597
rclavicle 3.55825e-014 7.95139e-015
rhumerus 245.03 -150.417 -270.36
rradius 97.5245
rwrist -95.4321
rhand 5.7954 362.643
rfingers 7.12502
rthumb 31.1283 -24.7338
lclavicle 3.55825e-014 7.95139e-015
lhumerus 9.48945 40.952 36.3949
lradius 139.398
lwrist 90.7738
lhand -9.47896 18.468
lfingers 7.12502
lthumb 16.4853 47.7877
rfemur 5.47373 11.3549 24.6309
rtibia 21.4707
rfoot -27.4905 -27.2782
rtoes -1.04859
lfemur -17.1655 -13.4119 -3.05485
ltibia 22.99
lfoot -4.34427 14.2502
ltoes -14.1622
4050
root 0.740629 18.3788 1.01426 -901.122 -34.287 -538.091
lowerback 5.30706 6.19295 5.56457
upperback 1.76745 8.45716 1.33008
thorax -0.523336 4.20069 -2.13806
lowerneck -6.81301 2.89043 -0.211747
upperneck 18.1645 0.394336 14.8601
head 6.60134 1.00532 4.8432
rclavicle 9.0447e-014 1.59028e-014
rhumerus 243.264 -150.513 -268.404
rradius 96.0096
rwrist -95.2383
rhand 3.61286 362.423
rfingers 7.12502
rthumb 29.046 -25.3325
lclavicle 9.0447e-014 1.59028e-014
lhumerus 7.93232 39.775 35.6866
lradius 138.397
lwrist 91.1077
lhand -9.67644 19.1622
lfingers 7.12502
lthumb 16.2952 48.4975
rfemur 5.46963 11.2895 24.2885
rtibia 21.4499
rfoot -27.3228 -27.0276
rtoes -1.21857
lfemur -16.8952 -13.3768 -3.35
ltibia 22.7601
lfoot -4.4227 14.606
ltoes -13.3363
4051
root 0.758688 18.3893 1.01968 -900.981 -34.0424 -538.426
lowerback 5.2555 6.16103 5.50335
upperback 1.73175 8.41295 1.25656
thorax -0.53298 4.17986 -2.17487
lowerneck -6.91117 3.08673 0.0983701
upperneck 17.9839 0.765559 14.3875
head 6.53894 1.17906 4.65604
rclavicle -2.48978e-014 1.66979e-014
rhumerus 241.305 -150.798 -266.267
rradius 94.4188
rwrist -94.9918
rhand 1.08392 361.938
rfingers 7.12502
rthumb 26.6282 -26.2095
lclavicle -2.48978e-014 1.66979e-014
lhumerus 6.3351 38.0212 34.9452
lradius 137.201
lwrist 90.8286
lhand -10.6341 18.6862
lfingers 7.12502
lthumb 15.3729 48.0947
rfemur 5.42441 11.3065 23.9639
rtibia 21.4854
rfoot -27.1768 -26.8577
rtoes -1.2775
lfemur -16.6411 -13.4518 -3.6403
ltibia 22.4915
lfoot -4.53775 15.1041
ltoes -11.8798
